<svg id="SvgjsSvg1001" width="288" height="288" xmlns="http://www.w3.org/2000/svg" version="1.1" xmlns:xlink="http://www.w3.org/1999/xlink" xmlns:svgjs="http://svgjs.com/svgjs"><defs id="SvgjsDefs1002"></defs><g id="SvgjsG1008"><svg xmlns="http://www.w3.org/2000/svg" enable-background="new 0 0 60 60" viewBox="0 0 60 60" width="288" height="288"><rect width="53" height="28" x="6" y="13.5" fill="#005c45" class="color4fba6f svgShape"></rect><path fill="#4b8d7b" d="M60 42.5H5v-30h55V42.5zM7 40.5h51v-26H7V40.5zM6 3.5H1c-.552 0-1-.447-1-1s.448-1 1-1h5c.552 0 1 .447 1 1S6.552 3.5 6 3.5z" class="color5e5f62 svgShape"></path><path fill="#4b8d7b" d="M6 14.5c-.552 0-1-.447-1-1v-11c0-.553.448-1 1-1s1 .447 1 1v11C7 14.053 6.552 14.5 6 14.5zM6 50.5c-.552 0-1-.447-1-1v-8c0-.553.448-1 1-1s1 .447 1 1v8C7 50.053 6.552 50.5 6 50.5z" class="color5e5f62 svgShape"></path><circle cx="16" cy="54.5" r="4" fill="#005c45" class="color556080 svgShape"></circle><circle cx="43" cy="54.5" r="4" fill="#005c45" class="color556080 svgShape"></circle><path fill="#4b8d7b" d="M52,50.5H6c-0.552,0-1-0.447-1-1s0.448-1,1-1h46c0.552,0,1,0.447,1,1S52.552,50.5,52,50.5z" class="color5e5f62 svgShape"></path></svg></g></svg>