<svg id="SvgjsSvg1029" width="288" height="288" xmlns="http://www.w3.org/2000/svg" version="1.1" xmlns:xlink="http://www.w3.org/1999/xlink" xmlns:svgjs="http://svgjs.com/svgjs"><defs id="SvgjsDefs1030"></defs><g id="SvgjsG1031"><svg xmlns="http://www.w3.org/2000/svg" id="Uploaded to svgrepo.com" width="288" height="288" x="0" y="0" enable-background="new 0 0 32 32" version="1.1" viewBox="0 0 32 32" xml:space="preserve"><rect width="32" height="20" y="6" fill="#b0d7cf" class="colore1e5e5 svgShape"></rect><polygon fill="#035a4b" points="30 8 26 8 26 9 25 8 22 8 22 9 21 8 18 8 18 9 17 8 14 8 14 9 13 8 10 8 10 9 9 8 6 8 6 9 5 8 2 8 2 11 3 12 2 12 2 15 3 16 2 16 2 19 3 20 2 20 2 23 5 26 32 26 32 10" class="colorc4cccc svgShape"></polygon><path fill="#fdffff" d="M24,23H8v-3h16V23z M30,20h-5v3h5V20z M7,20H2v3h5V20z M5,16H2v3h3V16z M9,16H6v3h3V16z M13,16h-3
		v3h3V16z M17,16h-3v3h3V16z M25,16h-3v3h3V16z M21,16h-3v3h3V16z M6,12H2v3h4V12z M10,12H7v3h3V12z M14,12h-3v3h3V12z M22,12h-3v3
		h3V12z M26,12h-3v3h3V12z M30,12h-3v3h3V12z M18,12h-3v3h3V12z M5,8H2v3h3V8z M9,8H6v3h3V8z M17,8h-3v3h3V8z M21,8h-3v3h3V8z M30,8
		h-4v3h4V8z M25,8h-3v3h3V8z M13,8h-3v3h3V8z M30,16h-4v3h4V16z" class="colorfdffff svgShape"></path></svg></g></svg>