<svg id="SvgjsSvg1001" width="288" height="288" xmlns="http://www.w3.org/2000/svg" version="1.1" xmlns:xlink="http://www.w3.org/1999/xlink" xmlns:svgjs="http://svgjs.com/svgjs"><defs id="SvgjsDefs1002"></defs><g id="SvgjsG1008"><svg xmlns="http://www.w3.org/2000/svg" enable-background="new 0 0 504.123 504.123" viewBox="0 0 504.123 504.123" width="288" height="288"><circle cx="252.062" cy="252.062" r="252.062" fill="#b0d7cf" class="colorffd05b svgShape"></circle><path fill="#035a4b" d="M408.812,148.086c-0.394-2.757-1.182-5.514-1.969-7.877l-40.172,39.778l-37.809-37.809l-5.12-5.12
	l37.022-37.022c-20.086-3.545-41.354,2.363-56.714,18.117c-16.542,16.542-22.055,39.385-17.329,60.652L178.806,287.114
	c-20.874-4.726-44.111,0.788-60.652,17.329c-15.36,15.36-21.268,36.628-18.117,56.714l37.022-37.022l5.12,5.12l37.809,37.809
	l-40.172,40.172c2.757,0.788,5.12,1.575,7.877,1.969c20.086,3.545,41.354-2.363,56.714-18.117
	c16.542-16.542,22.055-39.385,17.329-60.652l108.308-108.308c20.874,4.726,44.111-0.788,60.652-17.329
	C406.055,189.44,411.963,168.172,408.812,148.086z" class="color324a5e svgShape"></path></svg></g></svg>