<svg id="SvgjsSvg1035" width="288" height="288" xmlns="http://www.w3.org/2000/svg" version="1.1" xmlns:xlink="http://www.w3.org/1999/xlink" xmlns:svgjs="http://svgjs.com/svgjs"><defs id="SvgjsDefs1036"></defs><g id="SvgjsG1037"><svg xmlns="http://www.w3.org/2000/svg" width="288" height="288" viewBox="0 0 96 96"><circle cx="48" cy="48" r="46" fill="#b0d7cf" class="coloreaeaea svgShape"></circle><path fill="#b0d7cf" d="M48,2c-1.35,0-2.68.07-4,.18a46,46,0,0,1,0,91.63c1.32.11,2.65.18,4,.18A46,46,0,0,0,48,2Z" class="colorbacece svgShape"></path><circle cx="48" cy="48" r="46" fill="none" stroke="#035a4b" stroke-linecap="round" stroke-linejoin="round" stroke-width="4" class="colorStroke281a3b svgStroke"></circle><path fill="#575072" d="M57,58H71.63A3.38,3.38,0,0,0,75,54.63V43.38A3.38,3.38,0,0,0,71.63,40H57V25.38A3.38,3.38,0,0,0,53.63,22H42.38A3.38,3.38,0,0,0,39,25.38V40H24.37A3.38,3.38,0,0,0,21,43.38V54.63A3.38,3.38,0,0,0,24.37,58H39V72.63A3.38,3.38,0,0,0,42.37,76H53.62A3.38,3.38,0,0,0,57,72.63Z" class="color575072 svgShape"></path><path fill="#035a4b" d="M57,58H71.63A3.38,3.38,0,0,0,75,54.63V43.38A3.38,3.38,0,0,0,71.63,40H57V25.38A3.38,3.38,0,0,0,53.63,22H42.38A3.38,3.38,0,0,0,39,25.38V40H24.37A3.38,3.38,0,0,0,21,43.38V54.63A3.38,3.38,0,0,0,24.37,58H39V72.63A3.38,3.38,0,0,0,42.37,76H53.62A3.38,3.38,0,0,0,57,72.63Z" class="colorf47c6d svgShape"></path><path fill="none" stroke="#035a4b" stroke-linecap="round" stroke-linejoin="round" stroke-width="4" d="M57,58H71.63A3.38,3.38,0,0,0,75,54.63V43.38A3.38,3.38,0,0,0,71.63,40H57V25.38A3.38,3.38,0,0,0,53.63,22H42.38A3.38,3.38,0,0,0,39,25.38V40H24.37A3.38,3.38,0,0,0,21,43.38V54.63A3.38,3.38,0,0,0,24.37,58H39V72.63A3.38,3.38,0,0,0,42.37,76H53.62A3.38,3.38,0,0,0,57,72.63Z" class="colorStroke281a3b svgStroke"></path></svg></g></svg>