<svg id="SvgjsSvg1045" width="288" height="288" xmlns="http://www.w3.org/2000/svg" version="1.1" xmlns:xlink="http://www.w3.org/1999/xlink" xmlns:svgjs="http://svgjs.com/svgjs"><defs id="SvgjsDefs1046"></defs><g id="SvgjsG1047"><svg xmlns="http://www.w3.org/2000/svg" enable-background="new 0 0 512 512" viewBox="0 0 512 512" width="288" height="288"><path fill="#b0d7cf" d="M168.784,359.072C75.696,359.072,0,283.376,0,190.336S75.696,21.584,168.784,21.584
	c93.056,0,168.752,75.696,168.752,168.752S261.824,359.072,168.784,359.072z M168.784,46.144
	c-79.504,0-144.224,64.688-144.224,144.192s64.72,144.192,144.224,144.192s144.192-64.688,144.192-144.192
	S248.288,46.144,168.784,46.144z" class="colorf60 svgShape"></path><polygon points="375.76 295.904 434.016 237.648 218.928 200.272 256.304 415.36 317.504 354.176 453.744 490.416 512 432.16" fill="#035a4b" class="color000 svgShape"></polygon></svg></g></svg>